<svg xmlns="http://www.w3.org/2000/svg" width="325" height="70" viewBox="0 0 325 70"><g><g fill="#22293C"><path d="M89.237 68.312c-5.971 0-8.733-2.765-8.733-8.733v-45.625c0-5.971 2.763-8.733 8.733-8.733h14.079c17.912 0 36.09 7.485 36.09 31.367 0 22.189-18 31.725-35.377 31.725h-14.792v-.001zm13.723-50.081h-7.574v36.892h7.218c10.872 0 20.941-4.455 20.941-18.535 0-14.168-10.069-18.357-20.585-18.357zM150.818 37.123c-2.852 0-5.169-2.228-5.169-5.258 0-1.693.713-3.742 3.476-5.436 4.634-2.852 9.98-3.921 14.703-3.921 14.882 0 20.406 7.307 20.406 23.438v15.594c0 6.506-4.545 7.664-6.771 7.664-1.961 0-5.793-.892-6.595-5.614h-.268c-2.228 3.653-7.307 5.792-12.562 5.792-7.04 0-16.129-3.475-16.129-13.899 0-12.832 15.595-14.972 28.516-14.972v-.713c0-3.921-3.029-6.417-7.575-6.417-2.852 0-5.792 1.426-8.644 2.854-1.249.62-2.407.888-3.388.888zm20.05 11.852h-1.871c-6.416 0-13.634.803-13.634 6.062 0 3.387 3.386 4.545 6.326 4.545 5.881 0 9.179-3.563 9.179-9.089v-1.518zM192.191 8.251c0-7.04 4.9-8.198 7.308-8.198 2.495 0 7.396 1.158 7.396 8.198v33.685h.27l14.971-15.771c2.141-2.228 4.188-3.119 6.327-3.119 4.011 0 6.685 3.03 6.685 6.683 0 1.782-.625 3.743-3.029 5.881l-9.09 8.375 11.229 12.564c2.051 2.229 2.405 4.188 2.405 5.525 0 4.01-3.029 7.129-7.039 7.129-2.675 0-4.724-1.158-7.22-4.1l-15.236-18.09h-.268v13.989c0 7.04-4.901 8.198-7.396 8.198-2.404 0-7.307-1.158-7.307-8.198v-52.751h-.006zM238.557 60.826c0-3.207 2.405-5.703 5.613-5.703 1.426 0 2.762.445 4.455 1.604 2.584 1.782 4.99 2.496 7.309 2.496 2.404 0 5.256-.979 5.256-3.832 0-2.763-2.762-3.563-8.819-4.99-6.147-1.426-12.921-4.635-12.921-13.01 0-10.604 9.979-14.883 18.443-14.883 3.832 0 9.09.891 12.03 2.584 2.94 1.693 3.743 3.564 3.743 5.347 0 3.119-2.139 5.525-5.525 5.525-1.158 0-2.314-.446-3.742-1.248-2.049-1.158-3.741-1.693-5.971-1.693-2.763 0-5.525.98-5.525 3.564 0 2.496 2.406 3.119 8.109 4.367 6.772 1.515 14.17 4.989 14.17 13.634 0 11.229-9.893 15.148-18.98 15.148-5.079 0-10.871-1.247-14.26-3.477-2.585-1.691-3.385-3.65-3.385-5.433zM322.951 61.361c0 6.771-4.726 7.842-6.951 7.842-2.316 0-6.861-1.069-7.129-7.04h-.178c-2.052 3.921-7.129 7.396-13.278 7.396-11.94 0-16.218-9.268-16.218-18.179v-20.138c0-7.04 4.9-8.198 7.396-8.198 2.405 0 7.308 1.159 7.308 8.198v16.752c0 4.99 1.248 9.445 6.595 9.445 5.08 0 7.842-4.455 7.842-9.535v-16.662c0-7.04 4.901-8.198 7.308-8.198s7.31 1.159 7.31 8.198l-.005 30.119z"/></g><path fill="#0075CC" d="M1.083 14.155v52.575s.072 2.529 3.045 2.521h55.749s3.26.3 2.734-3.021c-.526-3.323-34.279-45.829-61.528-52.075z"/><path fill="#0092FF" d="M1.083 26.901l.009 39.83s.016 2.522 3.044 2.522 32.29-.017 32.29-.017-17.369-28.893-35.343-42.335z"/><path opacity=".6" fill="#00EABD" enable-background="new" d="M1.054 55.777l.003-52.632s-.272-3.061 3.174-3.061h55.919s4.133.158 1.546 3.975c-2.587 3.817-13.231 28.92-60.642 51.718z"/><path opacity=".8" fill="#5AE1C6" enable-background="new" d="M1.119 42.555l-.059-39.347s-.284-3.124 3.092-3.124h32.337s-16.75 30.763-35.37 42.471z"/></g></svg>